<?xml version="1.0" encoding="utf-8"?>
<!-- Generator: Adobe Illustrator 18.1.0, SVG Export Plug-In . SVG Version: 6.00 Build 0)  -->
<!DOCTYPE svg PUBLIC "-//W3C//DTD SVG 1.1//EN" "http://www.w3.org/Graphics/SVG/1.1/DTD/svg11.dtd">
<svg version="1.1" id="Layer_1" xmlns="http://www.w3.org/2000/svg" xmlns:xlink="http://www.w3.org/1999/xlink" x="0px" y="0px"
	 viewBox="-80.1 -4.2 192 40.3" enable-background="new -80.1 -4.2 192 40.3" xml:space="preserve">
<g>
	<path fill="#FFFFFF" d="M-27.8,6.2c-6.4,0-10,4-10,10.9c0,3.5,0.9,6.3,2.7,8.1c1.8,1.8,4.4,2.8,7.8,2.8c2.7,0,4.4-0.6,5.7-1.3
		c1.1-0.6,2.3-1.6,2.3-3.4c0-1-1-2.4-1.8-1.8c-1.3,1.2-3.9,2.6-6.2,2.6c-3.5,0-5.8-2.1-6-5.5h12.4c2.5,0,2.5-2.3,2.5-3.4
		c0-1-0.2-3.5-1.8-5.6C-21.8,7.3-24.3,6.2-27.8,6.2z M-23.4,14.9h-9.9c0.5-3.1,2.3-4.8,5.5-4.8c2.9,0,4.6,1.3,4.9,4.1
		C-22.8,14.5-23.1,14.9-23.4,14.9z"/>
	<path fill="#FFFFFF" d="M-40.9-4.1c-2.2,0.3-3.4,1.3-3.4,4v8c-1-0.8-2.8-1.8-5.4-1.8c-3.2,0-5.6,0.9-7.3,2.8s-2.5,4.6-2.5,8.2
		c0,3.5,0.8,6.3,2.5,8.1s4.2,2.8,7.5,2.8c6,0,9.6-3.4,9.6-9.1V-3.4C-40.1-3.8-40.5-4.2-40.9-4.1z M-44.5,19c0,3.4-1.8,5.2-5.2,5.2
		c-3.9,0-5.6-2.3-5.6-7.1c0-4.8,1.8-7,5.6-7c0.1,0,0.2,0,0.3,0c2.8,0.1,4.9,2.3,4.9,5V19z"/>
	<path fill="#FFFFFF" d="M-61.9,7c0-0.4-0.4-0.8-0.9-0.8c-2.2,0.3-3.4,1.3-3.4,4v1.6v0.6v7.2c0,3.2-1.3,4.4-4.8,4.4
		c-3.4,0-4.8-1.3-4.8-4.4v-7v-1.3V7.3c0-0.4-0.4-0.8-0.9-0.8c-2.1,0.2-3.4,1.3-3.4,4v0.8v1.3v7c0,2.5,0.6,4.4,1.8,5.9
		c1.5,1.8,3.9,2.6,7.4,2.6c3.4,0,5.9-0.8,7.4-2.6c1.2-1.3,1.8-3.3,1.8-5.9V9.8l0,0L-61.9,7L-61.9,7z"/>
	<path fill="#FFFFFF" d="M7,6.2c-2.8,0-5,0.8-6.5,2.5C-1,7.2-3.6,6.2-6.7,6.2c-2,0-3.9,0.7-5.2,1.8c-0.6-1.1-1.8-1.6-3.4-1.8
		c-0.5-0.1-1,0.3-1,0.8v4.3v1.2v9.3v2.2v1c0,0,0,0,0.1,0c0.3,2,1.5,2.8,3.4,3c0.5,0.1,0.9-0.3,0.9-0.8v-2.3v-3.1v-6.4
		c0-1.2,0.2-2.1,0.4-2.9l0,0l0,0c0.7-1.6,2.1-2.3,4.4-2.3c3.4,0,4.8,1.4,4.8,4.9v6.7l0,0v2.2c0,0.2,0,0.3,0,0.5v0.4l0,0
		c0.3,2,1.5,2.9,3.4,3.1c0.5,0.1,0.9-0.3,0.9-0.8v-3.1V24v-9.6C2.1,11.5,3.7,10,7,10c3.4,0,4.9,1.5,4.9,4.9v6.7v2.2l0,0l0,0
		c0,2.7,1.3,3.8,3.4,4c0.5,0.1,0.9-0.3,0.9-0.8v-3.4v-2.1v-7.2c0-2.3-0.6-4.1-1.8-5.5C13,7.2,10.4,6.2,7,6.2z"/>
	<path fill="#FFFFFF" d="M38.3,6.5L38.3,6.5c-0.6-0.2-1.1-0.3-1.7-0.3c-1.3,0-2.3,0.6-2.8,1.5l-6,13.3l-3.6-8.3l-2.2-4.9
		c-0.5-0.9-1.5-1.5-2.8-1.5c-0.6,0-1.1,0.1-1.6,0.3l0,0c-0.4,0.2-0.6,0.6-0.4,0.9l2.4,5.2l6,13.4c-1.8,4.1-2.7,6.1-6,6.1h-1.8
		c-0.7,0-1.1,0.5-1.1,1.1c0.2,1.7,1.8,2.8,3.7,2.8c3.8,0,6.4-2.3,8.3-6.7l10.1-22C38.9,7.1,38.6,6.7,38.3,6.5z"/>
</g>
<g opacity="0.82">
	<path fill="#FFFFFF" d="M56.9,8.8c2.3,0,4.2,0.8,5.4,2.4c1.3,1.6,1.9,3.9,1.9,6.8s-0.7,5.2-1.9,6.8c-1.3,1.6-3.1,2.4-5.4,2.4
		c-1.2,0-2.2-0.3-3.2-0.7c-0.9-0.4-1.8-1.1-2.4-2h-0.2l-0.6,2.3h-1.9V1.6h2.7v6.1c0,1.3-0.1,2.6-0.2,3.7h0.2
		C52.5,9.6,54.4,8.8,56.9,8.8z M56.5,11c-1.8,0-3.2,0.5-3.9,1.6c-0.8,1.1-1.3,2.8-1.3,5.4s0.4,4.3,1.3,5.4s2.2,1.6,4,1.6
		c1.7,0,2.8-0.6,3.7-1.8c0.8-1.2,1.3-2.9,1.3-5.2c0-2.3-0.4-4-1.3-5.2C59.4,11.5,58.2,11,56.5,11z"/>
	<path fill="#FFFFFF" d="M71.6,26.8h-2.7V1.6h2.7V26.8z"/>
	<path fill="#FFFFFF" d="M92.7,17.9c0,2.9-0.8,5.2-2.2,6.8c-1.4,1.6-3.4,2.4-6,2.4c-1.6,0-3-0.3-4.2-1.1c-1.3-0.8-2.2-1.8-2.8-3.2
		c-0.7-1.4-1-3-1-4.9c0-2.9,0.8-5.1,2.2-6.8c1.4-1.7,3.4-2.4,6-2.4c2.5,0,4.4,0.8,6,2.5C92,12.9,92.7,15,92.7,17.9z M79.2,17.9
		c0,2.3,0.4,4,1.3,5.2s2.3,1.8,4,1.8s3.1-0.6,4-1.8c0.9-1.2,1.3-2.9,1.3-5.2s-0.4-3.9-1.3-5.1c-0.9-1.2-2.3-1.8-4-1.8
		s-3.1,0.6-4,1.8C79.6,13.9,79.2,15.6,79.2,17.9z"/>
	<path fill="#FFFFFF" d="M111.9,9v1.7l-3.3,0.4c0.3,0.4,0.6,0.8,0.8,1.5c0.3,0.7,0.3,1.3,0.3,2.1c0,1.8-0.6,3.1-1.8,4.2
		c-1.2,1-2.8,1.6-4.9,1.6c-0.5,0-1-0.1-1.5-0.2c-1.2,0.6-1.8,1.3-1.8,2.3c0,0.5,0.2,0.8,0.6,1.1c0.4,0.3,1.1,0.3,2.1,0.3h3.2
		c1.9,0,3.4,0.4,4.4,1.3c1,0.8,1.5,2,1.5,3.5c0,1.9-0.8,3.4-2.3,4.5c-1.6,1-3.9,1.5-6.9,1.5c-2.3,0-4.1-0.4-5.4-1.3
		c-1.3-0.8-1.9-2.1-1.9-3.7c0-1.1,0.3-2,1-2.8c0.7-0.8,1.7-1.3,2.9-1.6c-0.4-0.2-0.8-0.5-1.2-0.9c-0.3-0.4-0.5-0.9-0.5-1.5
		c0-0.7,0.2-1.3,0.5-1.7c0.3-0.5,0.9-0.9,1.7-1.4c-0.9-0.4-1.7-1-2.3-1.9s-0.8-1.9-0.8-3.1c0-1.9,0.6-3.4,1.8-4.5
		c1.2-1.1,2.8-1.6,4.9-1.6c0.9,0,1.8,0.1,2.5,0.3h6.1V9z M97.8,29.8c0,0.9,0.4,1.7,1.3,2.2c0.8,0.5,2,0.8,3.5,0.8c2.3,0,3.9-0.3,5-1
		s1.6-1.6,1.6-2.8c0-0.9-0.3-1.6-0.9-2c-0.6-0.3-1.7-0.6-3.4-0.6h-3.3c-1.3,0-2.2,0.3-2.8,0.8C98.1,27.9,97.8,28.7,97.8,29.8z
		 M99.3,14.7c0,1.3,0.3,2.2,1.1,2.8c0.7,0.7,1.7,0.9,2.9,0.9c2.6,0,3.9-1.3,3.9-3.9c0-2.7-1.3-4-4-4c-1.3,0-2.3,0.3-2.9,1
		C99.6,12.3,99.3,13.4,99.3,14.7z"/>
</g>
</svg>
